<?xml version="1.0" encoding="utf-8"?>
<?xml-stylesheet type="text/xsl" href="rss1.xsl"?>
<rss version="2.0" xmlns:atom="http://www.w3.org/2005/Atom" xmlns:content="http://purl.org/rss/1.0/modules/content/" xmlns:dc="http://purl.org/dc/elements/1.1/" xmlns:media="http://search.yahoo.com/mrss/">
<channel>
 <title>Getty</title>
 <link>http://www.gettyimg.com/</link>
 <atom:link href="http://www.gettyimg.com/" rel="self" type="application/rss+xml" />

 
                <item>
                <title><![CDATA[【Apple Music】WEB-RiP - Imagine Dragons - Believer [Apple HD Music Video]]]></title>
                <link><![CDATA[https://sharemania.us/threads/imagine-dragons-believer-apple-hd-music-video.241900/]]></link>
                <description><![CDATA[<article>
<blockquote class="messageText SelectQuoteContainer ugc baseHtml">
<span style="font-size: 22px"><b>Imagine Dragons - Believer [Apple HD Music Video]</b></span><br>
<br>
<img src="https://imgur.com/MEjUi3M.jpg" class="bbCodeImage LbImage" alt="[​IMG]" data-url="https://imgur.com/MEjUi3M.jpg" style=""><br>
<br>
<div class="bbCodeBlock bbCodeCode">
<div class="type">Code:</div>
<pre>General
Format                         : MPEG-4
Codec ID                       : M4V  (isom/iso4/M4V /mp42)
File size                      : 269 MiB
Duration                       : 3 min 37 s
Overall bit rate mode          : Variable
Overall bit rate               : 10.4 Mb/s
Movie name                     : Believer
Performer                      : Imagine Dragons
Genre                          : Alternative
ContentType                    : Music Video
Recorded date                  : UTC 2017-04-01 07:00:00
Encoded date                   : UTC 2024-03-16 07:19:06
Tagged date                    : UTC 2024-03-16 07:19:06
Copyright                      : ℗ 2017 KIDinaKORNER/Interscope Records
Cover                          : Yes
Rating                         : None
GenreID                        : 1620
AppleStoreCountry              : Canada
AlbumTitleID                   : 358714030
AppleStoreCatalogID            : 1445059746

Video
ID                             : 2
Format                         : AVC
Format/Info                    : Advanced Video Codec
Format profile                 : High@L4
Format settings                : CABAC / 5 Ref Frames
Format settings, CABAC         : Yes
Format settings, Reference fra : 5 frames
Codec ID                       : avc1
Codec ID/Info                  : Advanced Video Coding
Duration                       : 3 min 37 s
Duration_LastFrame             : -1 ms
Bit rate                       : 10.1 Mb/s
Maximum bit rate               : 30.6 Mb/s
Width                          : 1 912 pixels
Height                         : 864 pixels
Display aspect ratio           : 2.2:1
Frame rate mode                : Constant
Frame rate                     : 23.976 (24000/1001) FPS
Color space                    : YUV
Chroma subsampling             : 4:2:0
Bit depth                      : 8 bits
Scan type                      : Progressive
Bits/(Pixel*Frame)             : 0.256
Stream size                    : 262 MiB (97%)
Title                          : Core Media Video
Encoded date                   : UTC 2024-03-01 04:34:54
Tagged date                    : UTC 2024-03-16 07:19:16
Color range                    : Limited
Color primaries                : BT.709
Transfer characteristics       : BT.709
Matrix coefficients            : BT.709
Codec configuration box        : avcC

Audio
ID                             : 1
Format                         : AAC LC
Format/Info                    : Advanced Audio Codec Low Complexity
Codec ID                       : mp4a-40-2
Duration                       : 3 min 37 s
Duration_LastFrame             : -5 ms
Bit rate mode                  : Variable
Bit rate                       : 252 kb/s
Maximum bit rate               : 382 kb/s
Channel(s)                     : 2 channels
Channel layout                 : L R
Sampling rate                  : 48.0 kHz
Frame rate                     : 46.875 FPS (1024 SPF)
Compression mode               : Lossy
Stream size                    : 6.54 MiB (2%)
Title                          : Core Media Audio
Encoded date                   : UTC 2024-03-01 04:34:49
Tagged date                    : UTC 2024-03-16 07:19:16
</pre>
</div>
<div class="bbCodeBlock bbCodeVfcHH HiddenContent">
<div class="attribution type">Hidden Content:</div>
<blockquote>You must reply before you can see the hidden data contained here.</blockquote>
</div>
<div class="messageTextEndMarker">&nbsp;</div>
</blockquote>
</article>]]></description>
                <author><![CDATA[abby0511]]></author>
                </item>

                
                <item>
                <title><![CDATA[【UPSCALED】Lady Gaga ft. Beyoncé - Telephone (2160p)]]></title>
                <link><![CDATA[https://sharemania.us/threads/lady-gaga-ft-beyonc%C3%A9-telephone-2160p.241899/]]></link>
                <description><![CDATA[<article>
<blockquote class="messageText SelectQuoteContainer ugc baseHtml">
<div style="text-align: center"><a href="https://ibb.co/LScWCKm" target="_blank" class="externalLink" rel="nofollow"><img src="https://i.ibb.co/y0Z182t/Lady-Gaga-Telephone-ft-Beyonc-chf3-iris2-mp4-thumbs.jpg" class="bbCodeImage LbImage" alt="[​IMG]" data-url="https://i.ibb.co/y0Z182t/Lady-Gaga-Telephone-ft-Beyonc-chf3-iris2-mp4-thumbs.jpg"></a><br>
<a href="https://ibb.co/D7bzkbg" target="_blank" class="externalLink" rel="nofollow"><img src="https://i.ibb.co/2j6WP6Y/Lady-Gaga-Telephone-ft-Beyonc-chf3-iris2-mp4-snapshot-00-35-634.jpg" class="bbCodeImage LbImage" alt="[​IMG]" data-url="https://i.ibb.co/2j6WP6Y/Lady-Gaga-Telephone-ft-Beyonc-chf3-iris2-mp4-snapshot-00-35-634.jpg"></a><br>
<a href="https://ibb.co/37NHWPT" target="_blank" class="externalLink" rel="nofollow"><img src="https://i.ibb.co/qdsw92D/Lady-Gaga-Telephone-ft-Beyonc-chf3-iris2-mp4-snapshot-05-56-356.jpg" class="bbCodeImage LbImage" alt="[​IMG]" data-url="https://i.ibb.co/qdsw92D/Lady-Gaga-Telephone-ft-Beyonc-chf3-iris2-mp4-snapshot-05-56-356.jpg"></a><br>
<a href="https://ibb.co/YbNV5Nx" target="_blank" class="externalLink" rel="nofollow"><img src="https://i.ibb.co/nRwKXwF/Lady-Gaga-Telephone-ft-Beyonc-chf3-iris2-mp4-snapshot-07-10-292.jpg" class="bbCodeImage LbImage" alt="[​IMG]" data-url="https://i.ibb.co/nRwKXwF/Lady-Gaga-Telephone-ft-Beyonc-chf3-iris2-mp4-snapshot-07-10-292.jpg"></a><br>
<a href="https://ibb.co/LdjRnS2" target="_blank" class="externalLink" rel="nofollow"><img src="https://i.ibb.co/gZq9zyB/Lady-Gaga-Telephone-ft-Beyonc-chf3-iris2-mp4-snapshot-04-49-853.jpg" class="bbCodeImage LbImage" alt="[​IMG]" data-url="https://i.ibb.co/gZq9zyB/Lady-Gaga-Telephone-ft-Beyonc-chf3-iris2-mp4-snapshot-04-49-853.jpg"></a><br>
<br>
<div class="bbCodeBlock bbCodeVfcHH HiddenContent">
<div class="attribution type">Hidden Content:</div>
<blockquote>You must either reply or click 'Like' to see the hidden information contained here.</blockquote>
</div></div>
<div class="messageTextEndMarker">&nbsp;</div>
</blockquote>
</article>]]></description>
                <author><![CDATA[vjrhymes]]></author>
                </item>

                </channel></rss>